<svg width="16" height="22" viewBox="0 0 16 22" fill="none" xmlns="http://www.w3.org/2000/svg">
<path d="M16 7.13267V18.6316C16 20.4927 14.4926 22 12.6316 22H3.36842C1.50737 22 0 20.4927 0 18.6316V3.81056C0 1.94951 1.50737 0.442139 3.36842 0.442139H9.34316L16 7.13267Z" fill="#1E88E5"/>
<path d="M11.0274 7.13266H16L9.34317 0.442139V5.44845C9.34317 6.37898 10.0969 7.13266 11.0274 7.13266Z" fill="#64B5F6"/>
<path d="M12.0842 19.8485H3.91579C3.17895 19.8485 2.65263 19.1285 2.88 18.4253L3.68421 15.9116C3.98737 14.9685 5.00632 14.4674 5.93684 14.8042C6.48421 15.0021 7.17474 15.1537 8 15.1537C8.82527 15.1537 9.51579 15.0021 10.0632 14.8042C10.9937 14.4674 12.0168 14.9727 12.3158 15.9116L13.12 18.4253C13.3516 19.1285 12.8253 19.8485 12.0842 19.8485Z" fill="#90CAF9"/>
<path d="M8 14.139C9.50454 14.139 10.7242 12.9193 10.7242 11.4148C10.7242 9.91022 9.50454 8.69055 8 8.69055C6.49546 8.69055 5.27579 9.91022 5.27579 11.4148C5.27579 12.9193 6.49546 14.139 8 14.139Z" fill="#E3F2FD"/>
</svg>
