<svg width="77" height="66" viewBox="0 0 77 66" fill="none" xmlns="http://www.w3.org/2000/svg">
<path d="M72.8317 28.5761H12.6438L30.759 7.00635C31.0859 6.63043 31.3467 6.18076 31.526 5.68357C31.7054 5.18639 31.7998 4.65165 31.8038 4.11056C31.8077 3.56946 31.7211 3.03285 31.549 2.53203C31.3769 2.03121 31.1228 1.57621 30.8015 1.19358C30.4801 0.810955 30.098 0.508363 29.6774 0.303461C29.2568 0.0985591 28.8061 -0.0045481 28.3517 0.000153865C27.8972 0.00485583 27.4481 0.117274 27.0306 0.330848C26.613 0.544422 26.2354 0.854877 25.9197 1.24409L1.96226 29.7701C1.32065 30.5343 0.960205 31.5707 0.960205 32.6512C0.960205 33.7318 1.32065 34.7682 1.96226 35.5324L25.9197 64.0584C26.5651 64.8007 27.4297 65.2114 28.327 65.2022C29.2244 65.1929 30.0828 64.7643 30.7174 64.0087C31.3519 63.2532 31.7119 62.2311 31.7197 61.1626C31.7274 60.0941 31.3825 59.0647 30.759 58.2961L12.6438 36.7264H72.8317C73.7394 36.7264 74.6099 36.297 75.2517 35.5328C75.8936 34.7686 76.2541 33.732 76.2541 32.6512C76.2541 31.5704 75.8936 30.5339 75.2517 29.7697C74.6099 29.0054 73.7394 28.5761 72.8317 28.5761Z" fill="white"/>
</svg>
