<svg width="19" height="21" viewBox="0 0 19 21" fill="none" xmlns="http://www.w3.org/2000/svg">
<path d="M3.55643 21C2.92472 21 2.38517 20.7803 1.93778 20.341C1.49038 19.9017 1.26667 19.372 1.26667 18.7517V2.96579H0.950003C0.680434 2.96579 0.454714 2.8765 0.272841 2.69792C0.090968 2.51934 2.11149e-05 2.29771 3.67449e-09 2.03302C-2.11075e-05 1.76833 0.0909258 1.5467 0.272841 1.36811C0.454714 1.18951 0.680434 1.10021 0.950003 1.10021H5.69999C5.69999 0.795661 5.80919 0.536156 6.02761 0.321694C6.24603 0.107231 6.51032 0 6.82048 0H12.1795C12.4897 0 12.754 0.107231 12.9724 0.321694C13.1908 0.536156 13.3 0.795661 13.3 1.10021H18.05C18.3196 1.10021 18.5453 1.18951 18.7272 1.36811C18.909 1.54672 19 1.76835 19 2.03302C19 2.29769 18.9091 2.51932 18.7272 2.69792C18.5453 2.8765 18.3196 2.96579 18.05 2.96579H17.7333V18.7517C17.7333 19.372 17.5096 19.9017 17.0622 20.341C16.6148 20.7803 16.0753 21 15.4436 21H3.55643ZM15.8334 2.96579H3.16665V18.7517C3.16665 18.8633 3.20319 18.955 3.27628 19.0268C3.34936 19.0985 3.44275 19.1344 3.55643 19.1344H9.5H15.4436C15.5573 19.1344 15.6506 19.0985 15.7237 19.0268C15.7968 18.955 15.8334 18.8633 15.8334 18.7517V2.96579ZM6.21156 16.6469H8.11154V5.45327H6.21156V16.6469ZM10.8885 16.6469H12.7884V5.45327H10.8885V16.6469Z" fill="#464747"/>
</svg>
