<svg width="30" height="40" viewBox="0 0 30 40" fill="none" xmlns="http://www.w3.org/2000/svg">
<path d="M19.6995 0.288632L19.6899 0.279333C19.6031 0.189808 19.4991 0.1189 19.384 0.0709365C19.269 0.0229734 19.1454 -0.00103783 19.0207 0.000368909C18.9896 -0.0011189 18.9582 0.00185672 18.9277 0.00996527H4.64828C2.08144 0.010486 0.00111586 2.09111 0 4.65817V34.4068C0.00119025 36.9736 2.08144 39.0541 4.64828 39.055H25.3517C27.9185 39.0541 29.9991 36.9736 30 34.4068V10.9607C29.9982 10.7144 29.9016 10.4782 29.7303 10.3011L19.6995 0.288632ZM19.9502 3.17066L26.8482 10.0501H22.7394C21.201 10.0454 19.9546 8.79934 19.9503 7.26124L19.9502 3.17066ZM25.361 37.1865H4.64828C3.10989 37.1822 1.86415 35.9358 1.85916 34.3975V4.64858C1.86422 3.11048 3.10989 1.86415 4.64828 1.85983H18.0911V7.26132C18.092 9.82778 20.1726 11.9083 22.7394 11.9095H28.1408V34.3974C28.1437 35.9352 26.8988 37.1844 25.361 37.1865V37.1865Z" fill="white"/>
<path d="M5.95912 17.9428H16.0087C16.522 17.9428 16.9386 17.5267 16.9386 17.0132C16.9386 16.4998 16.522 16.0836 16.0087 16.0836H5.95912C5.44561 16.0836 5.02954 16.4998 5.02954 17.0132C5.02954 17.5267 5.44561 17.9428 5.95912 17.9428ZM24.0502 23.1118H5.95912C5.44561 23.1118 5.02954 23.5279 5.02954 24.0414C5.02954 24.5545 5.44561 24.971 5.95912 24.971H24.0502C24.5633 24.971 24.9801 24.5545 24.9801 24.0414C24.9801 23.5279 24.5633 23.1118 24.0502 23.1118ZM24.0502 30.1492H5.95912C5.44561 30.1492 5.02954 30.5653 5.02954 31.0788C5.02954 31.5922 5.44561 32.0084 5.95912 32.0084H24.0502C24.5633 32.0084 24.9801 31.5923 24.9801 31.0788C24.9801 30.5653 24.5633 30.1492 24.0502 30.1492Z" fill="white"/>
</svg>
