<svg width="14" height="8" viewBox="0 0 14 8" fill="none" xmlns="http://www.w3.org/2000/svg">
<path fill-rule="evenodd" clip-rule="evenodd" d="M7.34357 5.98817L12.5877 0.743999C12.7449 0.5922 12.9554 0.508205 13.1739 0.510104C13.3924 0.512002 13.6014 0.599643 13.7559 0.75415C13.9104 0.908657 13.9981 1.11767 14 1.33616C14.0019 1.55466 13.9179 1.76516 13.7661 1.92233L7.93274 7.75567C7.85542 7.83312 7.76358 7.89457 7.66248 7.93649C7.56139 7.97842 7.45302 8 7.34357 8C7.23413 8 7.12576 7.97842 7.02466 7.93649C6.92357 7.89457 6.83173 7.83312 6.75441 7.75567L0.921072 1.92233C0.769274 1.76516 0.685279 1.55466 0.687178 1.33616C0.689075 1.11767 0.776717 0.908657 0.931224 0.75415C1.08573 0.599643 1.29474 0.512002 1.51324 0.510104C1.73174 0.508205 1.94224 0.5922 2.09941 0.743999L7.34357 5.98817Z" fill="#999999"/>
</svg>
