<svg width="19" height="18" viewBox="0 0 19 18" fill="none" xmlns="http://www.w3.org/2000/svg">
<path d="M18.05 16.1053H0.95C0.698044 16.1053 0.456408 16.2051 0.278249 16.3827C0.100089 16.5604 0 16.8014 0 17.0526C0 17.3039 0.100089 17.5449 0.278249 17.7225C0.456408 17.9002 0.698044 18 0.95 18H18.05C18.302 18 18.5436 17.9002 18.7218 17.7225C18.8999 17.5449 19 17.3039 19 17.0526C19 16.8014 18.8999 16.5604 18.7218 16.3827C18.5436 16.2051 18.302 16.1053 18.05 16.1053ZM9.5 0C9.24804 0 9.00641 0.0998117 8.82825 0.277478C8.65009 0.455144 8.55 0.696111 8.55 0.947368V10.98L5.4245 7.85368C5.24561 7.67529 5.00299 7.57507 4.75 7.57507C4.49701 7.57507 4.25439 7.67529 4.0755 7.85368C3.89661 8.03208 3.79611 8.27403 3.79611 8.52632C3.79611 8.7786 3.89661 9.02055 4.0755 9.19895L8.8255 13.9358C8.91381 14.0246 9.01889 14.0951 9.13465 14.1432C9.25042 14.1913 9.37459 14.216 9.5 14.216C9.62541 14.216 9.74958 14.1913 9.86535 14.1432C9.98111 14.0951 10.0862 14.0246 10.1745 13.9358L14.9245 9.19895C15.0131 9.11062 15.0833 9.00575 15.1313 8.89034C15.1792 8.77493 15.2039 8.65124 15.2039 8.52632C15.2039 8.4014 15.1792 8.2777 15.1313 8.16229C15.0833 8.04688 15.0131 7.94202 14.9245 7.85368C14.8359 7.76535 14.7308 7.69528 14.615 7.64748C14.4993 7.59968 14.3753 7.57507 14.25 7.57507C14.1247 7.57507 14.0007 7.59968 13.885 7.64748C13.7692 7.69528 13.6641 7.76535 13.5755 7.85368L10.45 10.98V0.947368C10.45 0.696111 10.3499 0.455144 10.1718 0.277478C9.99359 0.0998117 9.75196 0 9.5 0Z" fill="white"/>
</svg>
