<svg width="19" height="19" viewBox="0 0 19 19" fill="none" xmlns="http://www.w3.org/2000/svg">
<path d="M3.10186 15.2088H3.19907L5.78837 14.9702C6.1507 14.9349 6.48651 14.7758 6.74279 14.5195L16.5167 4.74558C16.9763 4.28605 17.2326 3.67628 17.2326 3.03116C17.2326 2.38605 16.9763 1.77628 16.5167 1.31674L15.8893 0.689302C14.9702 -0.229767 13.3707 -0.229767 12.4516 0.689302L11.2056 1.93535L2.68651 10.4544C2.43023 10.7107 2.27116 11.0465 2.24465 11.4088L2.00605 13.9981C1.97953 14.3251 2.09442 14.6433 2.32419 14.8819C2.53628 15.094 2.81023 15.2088 3.10186 15.2088ZM14.1749 1.29907C14.4577 1.29907 14.7405 1.40512 14.9526 1.62605L15.58 2.25349C15.6832 2.35498 15.7652 2.47602 15.8212 2.60954C15.8772 2.74306 15.906 2.88638 15.906 3.03116C15.906 3.17594 15.8772 3.31927 15.8212 3.45279C15.7652 3.58631 15.6832 3.70734 15.58 3.80884L14.8023 4.58651L12.6195 2.40372L13.3972 1.62605C13.6093 1.41395 13.8921 1.29907 14.1749 1.29907ZM3.5614 11.5326C3.5614 11.4795 3.58791 11.4353 3.62326 11.4L11.674 3.34046L13.8567 5.52326L5.80605 13.574C5.80605 13.574 5.71767 13.6358 5.67349 13.6358L3.3493 13.8479L3.5614 11.5237V11.5326ZM19 18.0279C19 18.3902 18.6995 18.6907 18.3372 18.6907H0.662791C0.300465 18.6907 0 18.3902 0 18.0279C0 17.6656 0.300465 17.3651 0.662791 17.3651H18.3372C18.6995 17.3651 19 17.6656 19 18.0279Z" fill="#626472"/>
</svg>
