<svg width="10" height="11" viewBox="0 0 10 11" fill="none" xmlns="http://www.w3.org/2000/svg">
<path d="M9.73137 4.56787L9.73069 4.5672L5.65107 0.537173C5.47717 0.365279 5.24597 0.27063 5.00007 0.27063C4.75414 0.27063 4.52295 0.365222 4.34898 0.537096L0.271479 4.56508C0.270111 4.56643 0.268744 4.56785 0.267377 4.56922C-0.0897301 4.92401 -0.089105 5.49967 0.269135 5.85356C0.432784 6.01533 0.648959 6.10901 0.880076 6.11881C0.889452 6.11972 0.898925 6.12016 0.908458 6.12016H1.07105V9.08604C1.07105 9.67295 1.55442 10.1505 2.14866 10.1505H3.74472C3.9065 10.1505 4.03772 10.0209 4.03772 9.86101V7.53578C4.03772 7.26796 4.25825 7.05012 4.52935 7.05012H5.47076C5.74188 7.05012 5.96237 7.26798 5.96237 7.53578V9.86101C5.96237 10.0209 6.09354 10.1505 6.25537 10.1505H7.85145C8.44569 10.1505 8.92906 9.67295 8.92906 9.08606V6.12018H9.07984C9.32568 6.12018 9.55688 6.02559 9.73092 5.85374C10.0895 5.49924 10.0897 4.9226 9.73137 4.56787Z" fill="white"/>
</svg>
