<svg width="10" height="8" viewBox="0 0 10 8" fill="none" xmlns="http://www.w3.org/2000/svg">
<path d="M6.47959 4.35971L5.64207 5.18988C5.30244 5.52657 4.70486 5.53382 4.35789 5.18988L3.52033 4.35971L0.512207 7.34103C0.62418 7.39218 0.747637 7.42271 0.878887 7.42271H9.12107C9.25232 7.42271 9.37574 7.39222 9.48768 7.34105L6.47959 4.35971Z" fill="white"/>
<path d="M9.12109 0.476654H0.878906C0.747656 0.476654 0.624199 0.507178 0.512266 0.558328L3.72666 3.74431C3.72687 3.74452 3.72713 3.74456 3.72734 3.74477C3.72748 3.74491 3.72757 3.74508 3.7276 3.74527L4.77277 4.7812C4.88379 4.89087 5.11625 4.89087 5.22727 4.7812L6.27223 3.74544C6.27223 3.74544 6.27248 3.74498 6.2727 3.74477C6.2727 3.74477 6.27316 3.74452 6.27338 3.74431L9.48769 0.558309C9.37576 0.50714 9.25234 0.476654 9.12109 0.476654ZM0.0934766 0.963109C0.0355469 1.07884 0 1.2073 0 1.34491V6.55445C0 6.69205 0.0355078 6.82052 0.093457 6.93625L3.1068 3.94977L0.0934766 0.963109ZM9.90652 0.96307L6.89322 3.94977L9.90652 6.93629C9.96445 6.82056 10 6.69209 10 6.55445V1.34491C10 1.20726 9.96445 1.0788 9.90652 0.96307Z" fill="white"/>
</svg>
