<svg width="18" height="11" viewBox="0 0 18 11" fill="none" xmlns="http://www.w3.org/2000/svg">
<path d="M6.34583 8.47388L15.7042 0.41533C15.8653 0.276597 16.0566 0.205729 16.2781 0.202728C16.4997 0.199727 16.6944 0.270595 16.8625 0.41533C17.0305 0.560034 17.1146 0.72627 17.1146 0.914042C17.1146 1.10181 17.0305 1.26805 16.8625 1.41276L7.03123 9.87853C6.8354 10.0472 6.60693 10.1315 6.34583 10.1315C6.08473 10.1315 5.85626 10.0472 5.66043 9.87853L1.13752 5.98382C0.976406 5.84509 0.896889 5.68034 0.898965 5.48958C0.901042 5.29883 0.986111 5.1311 1.15417 4.98639C1.32223 4.84169 1.51528 4.76933 1.73332 4.76932C1.95136 4.7693 2.14441 4.84166 2.31247 4.98639L6.34583 8.47388Z" fill="white"/>
</svg>
