<svg width="26" height="30" viewBox="0 0 26 30" fill="none" xmlns="http://www.w3.org/2000/svg">
<path d="M12.3253 14.4511C14.3106 14.4511 16.0295 13.739 17.4344 12.3341C18.8388 10.9295 19.5511 9.21086 19.5511 7.22536C19.5511 5.24044 18.839 3.52159 17.4341 2.11646C16.0292 0.71203 14.3103 0 12.3253 0C10.3397 0 8.621 0.71203 7.21639 2.1167C5.81179 3.52136 5.09946 5.24026 5.09946 7.22536C5.09946 9.21086 5.81173 10.9298 7.21645 12.3344C8.62153 13.7389 10.3404 14.4511 12.3252 14.4511H12.3253ZM8.45969 3.35976C9.53746 2.28193 10.8019 1.75804 12.3253 1.75804C13.8485 1.75804 15.1131 2.28193 16.1911 3.35976C17.2689 4.43776 17.793 5.70233 17.793 7.2253C17.793 8.74873 17.2689 10.0131 16.1911 11.0911C15.1131 12.1692 13.8485 12.6931 12.3253 12.6931C10.8023 12.6931 9.53799 12.169 8.45969 11.0911C7.38163 10.0134 6.85751 8.74879 6.85751 7.22536C6.85751 5.70233 7.38163 4.43776 8.45969 3.35976ZM24.9684 23.0685C24.9279 22.484 24.846 21.8462 24.7253 21.1729C24.6036 20.4945 24.4468 19.8532 24.2591 19.267C24.0651 18.6611 23.8016 18.0629 23.4754 17.4895C23.1373 16.8944 22.7401 16.3762 22.2942 15.9498C21.8279 15.5038 21.2571 15.1451 20.597 14.8834C19.9392 14.6233 19.2102 14.4914 18.4305 14.4914C18.1242 14.4914 17.8281 14.6171 17.2561 14.9895C16.8495 15.2542 16.4417 15.5171 16.0327 15.7782C15.6397 16.0286 15.1073 16.2632 14.4497 16.4756C13.8082 16.6832 13.1568 16.7885 12.5136 16.7885C11.871 16.7885 11.2195 16.6832 10.5775 16.4756C9.92066 16.2634 9.38805 16.0288 8.9957 15.7784C8.54043 15.4875 8.12852 15.222 7.77121 14.9892C7.19969 14.6168 6.9035 14.4911 6.59729 14.4911C5.81723 14.4911 5.08851 14.6232 4.43091 14.8837C3.77126 15.1449 3.20021 15.5035 2.73351 15.9501C2.28767 16.3767 1.89035 16.8946 1.5525 17.4895C1.22683 18.0628 0.963162 18.6609 0.769041 19.2672C0.581542 19.8534 0.424804 20.4945 0.303046 21.1729C0.182168 21.8453 0.100488 22.4833 0.0599413 23.0692C0.0200976 23.6421 0 24.2383 0 24.8407C0 26.4067 0.497812 27.6745 1.47949 28.6095C2.44904 29.5322 3.73171 29.9999 5.29194 29.9999H19.7371C21.2969 29.9999 22.5796 29.5321 23.5494 28.6095C24.5313 27.6752 25.0291 26.407 25.0291 24.8405C25.0289 24.236 25.0085 23.6398 24.9684 23.0685ZM22.3372 27.3357C21.6966 27.9455 20.846 28.2419 19.7369 28.2419H5.292C4.18265 28.2419 3.3321 27.9455 2.69167 27.336C2.06343 26.7379 1.7581 25.9215 1.7581 24.8407C1.7581 24.2786 1.77662 23.7236 1.81377 23.1907C1.84986 22.6679 1.9238 22.0937 2.03349 21.4835C2.14171 20.8808 2.27947 20.3153 2.44335 19.8033C2.60062 19.3123 2.81507 18.8262 3.08103 18.3579C3.33486 17.9115 3.62689 17.5286 3.94915 17.2201C4.25062 16.9315 4.6306 16.6953 5.07825 16.5182C5.49227 16.3542 5.95762 16.2645 6.46276 16.251C6.52428 16.2838 6.63397 16.3463 6.81157 16.4621C7.17297 16.6976 7.58952 16.9663 8.05006 17.2604C8.5692 17.5914 9.23793 17.8903 10.037 18.1482C10.8538 18.4123 11.687 18.5465 12.5139 18.5465C13.3409 18.5465 14.1742 18.4123 14.9907 18.1484C15.7903 17.89 16.4589 17.5914 16.9787 17.2599C17.45 16.9588 17.8549 16.6978 18.2162 16.4621C18.3939 16.3465 18.5035 16.2838 18.5651 16.2511C19.0705 16.2645 19.5358 16.3542 19.95 16.5181C20.3975 16.6953 20.7775 16.9317 21.0789 17.2201C21.4011 17.5284 21.6932 17.9114 21.947 18.3581C22.2132 18.8262 22.4279 19.3126 22.5849 19.8031C22.749 20.3158 22.887 20.8811 22.9951 21.4832C23.1045 22.0946 23.1786 22.6691 23.2148 23.191V23.1914C23.2521 23.7222 23.2709 24.277 23.2711 24.8407C23.2709 25.9218 22.9655 26.738 22.3373 27.3357H22.3372Z" fill="white"/>
</svg>
