<svg width="10" height="11" viewBox="0 0 10 11" fill="none" xmlns="http://www.w3.org/2000/svg">
<path d="M9.6168 2.5727C9.23309 2.05111 8.56112 1.58032 7.72469 1.24711C6.89276 0.915702 5.92683 0.732424 5.00478 0.731131C4.08265 0.728854 3.11552 0.910242 2.2824 1.23906C1.44451 1.56979 0.770953 2.03853 0.385836 2.55888C0.0159541 3.05865 -0.0906474 3.59734 0.077536 4.11671C0.186657 4.45361 0.504918 4.68032 0.869683 4.68084L2.11872 4.682H2.11997C2.36904 4.68198 2.60304 4.57428 2.76206 4.38637C2.91941 4.20046 2.98456 3.95751 2.94089 3.71976C2.9396 3.71278 2.93806 3.70584 2.93628 3.69896L2.87056 3.44655C3.2345 3.275 4.05911 2.94356 5.00093 2.94883C5.94206 2.95359 6.7661 3.28484 7.13048 3.45647L7.0637 3.70745C7.0618 3.71457 7.06018 3.72171 7.05885 3.72891C7.0145 3.96652 7.07897 4.20965 7.23575 4.396C7.39452 4.5847 7.62868 4.69309 7.87838 4.69346L9.12743 4.69462H9.12868C9.49276 4.6946 9.81112 4.46895 9.92104 4.13274C10.0908 3.61351 9.98563 3.07407 9.6168 2.5727Z" fill="white"/>
<path d="M7.82412 5.95428L6.89267 4.9881C6.8648 4.95919 6.83128 4.93618 6.79414 4.92046C6.757 4.90473 6.71701 4.89662 6.6766 4.89663H6.07465V4.49486C6.07465 4.33207 5.94105 4.20007 5.77625 4.20007C5.61144 4.20007 5.47785 4.33205 5.47785 4.49486V4.89663H4.52234V4.49486C4.52234 4.33207 4.38875 4.20007 4.22395 4.20007C4.05914 4.20007 3.92555 4.33205 3.92555 4.49486V4.89663H3.32362C3.28321 4.89663 3.24322 4.90474 3.20608 4.92046C3.16893 4.93619 3.13541 4.9592 3.10754 4.9881L2.1761 5.95428C1.44579 6.71182 1.04358 7.70514 1.04358 8.75125V9.96397C1.04358 10.1268 1.17717 10.2588 1.34198 10.2588H8.65822C8.82302 10.2588 8.95661 10.1268 8.95661 9.96397V8.75125C8.95663 7.70514 8.55443 6.71184 7.82412 5.95428ZM5.0001 9.18123C4.13897 9.18123 3.4384 8.48914 3.4384 7.63844C3.4384 6.78776 4.13899 6.09567 5.0001 6.09567C5.86121 6.09567 6.56179 6.78776 6.56179 7.63844C6.56179 8.48914 5.86121 9.18123 5.0001 9.18123Z" fill="white"/>
<path d="M5.00009 6.68524C4.46802 6.68524 4.03519 7.11285 4.03519 7.63845C4.03519 8.16407 4.46804 8.59168 5.00009 8.59168C5.53214 8.59168 5.96499 8.16407 5.96499 7.63845C5.96499 7.11287 5.53214 6.68524 5.00009 6.68524Z" fill="white"/>
</svg>
