<svg width="19" height="20" viewBox="0 0 19 20" fill="none" xmlns="http://www.w3.org/2000/svg">
<path d="M18.2188 9.21875H9.78125V0.78125C9.78125 0.349766 9.43148 0 9 0C8.56852 0 8.21875 0.349766 8.21875 0.78125V9.21875H-0.21875C-0.650234 9.21875 -1 9.56852 -1 10C-1 10.4315 -0.650234 10.7812 -0.21875 10.7812H8.21875V19.2188C8.21875 19.6502 8.56852 20 9 20C9.43148 20 9.78125 19.6502 9.78125 19.2188V10.7812H18.2188C18.6502 10.7812 19 10.4315 19 10C19 9.56852 18.6502 9.21875 18.2188 9.21875Z" fill="#626472"/>
</svg>
