<svg width="14" height="8" viewBox="0 0 14 8" fill="none" xmlns="http://www.w3.org/2000/svg">
<path fill-rule="evenodd" clip-rule="evenodd" d="M6.65649 2.01183L1.41232 7.256C1.25515 7.4078 1.04465 7.4918 0.826153 7.4899C0.607656 7.488 0.398646 7.40036 0.244139 7.24585C0.0896322 7.09134 0.00199122 6.88233 9.25372e-05 6.66384C-0.00180615 6.44534 0.0821895 6.23484 0.233988 6.07767L6.06732 0.244335C6.14464 0.16688 6.23648 0.105432 6.33758 0.063506C6.43867 0.0215804 6.54704 0 6.65649 0C6.76593 0 6.8743 0.0215804 6.9754 0.063506C7.07649 0.105432 7.16833 0.16688 7.24565 0.244335L13.079 6.07767C13.2308 6.23484 13.3148 6.44534 13.3129 6.66384C13.311 6.88233 13.2233 7.09134 13.0688 7.24585C12.9143 7.40036 12.7053 7.488 12.4868 7.4899C12.2683 7.4918 12.0578 7.4078 11.9007 7.256L6.65649 2.01183Z" fill="#999999"/>
</svg>
